<svg width="16" height="16" viewBox="0 0 16 16" fill="none" xmlns="http://www.w3.org/2000/svg">
<path fill-rule="evenodd" clip-rule="evenodd" d="M8 16.0068C12.4183 16.0068 16 12.4251 16 8.00684C16 3.58856 12.4183 0.00683594 8 0.00683594C3.58172 0.00683594 0 3.58856 0 8.00684C0 12.4251 3.58172 16.0068 8 16.0068ZM6.28033 5.22651C5.98744 4.93361 5.51256 4.93361 5.21967 5.22651C4.92678 5.5194 4.92678 5.99427 5.21967 6.28717L6.93934 8.00684L5.21967 9.72651C4.92678 10.0194 4.92678 10.4943 5.21967 10.7872C5.51256 11.0801 5.98744 11.0801 6.28033 10.7872L8 9.0675L9.71967 10.7872C10.0126 11.0801 10.4874 11.0801 10.7803 10.7872C11.0732 10.4943 11.0732 10.0194 10.7803 9.72651L9.06066 8.00684L10.7803 6.28717C11.0732 5.99427 11.0732 5.5194 10.7803 5.22651C10.4874 4.93361 10.0126 4.93361 9.71967 5.22651L8 6.94618L6.28033 5.22651Z" fill="#ED4242"/>
</svg>
