<svg width="16" height="16" viewBox="0 0 16 16" fill="none" xmlns="http://www.w3.org/2000/svg">
<path fill-rule="evenodd" clip-rule="evenodd" d="M8 16.0046C12.4183 16.0046 16 12.4229 16 8.00464C16 3.58636 12.4183 0.00463867 8 0.00463867C3.58172 0.00463867 0 3.58636 0 8.00464C0 12.4229 3.58172 16.0046 8 16.0046ZM11.8566 6.19577C12.1002 5.86078 12.0261 5.39172 11.6911 5.14809C11.3561 4.90446 10.8871 4.97852 10.6434 5.31351L7.15969 10.1037L5.28033 8.22431C4.98744 7.93142 4.51256 7.93142 4.21967 8.22431C3.92678 8.5172 3.92678 8.99207 4.21967 9.28497L6.71967 11.785C6.87477 11.9401 7.08999 12.0195 7.30867 12.0023C7.52734 11.9852 7.72754 11.8732 7.85655 11.6958L11.8566 6.19577Z" fill="#4ADE80"/>
</svg>
