<svg width="18" height="15" viewBox="0 0 18 15" fill="none" xmlns="http://www.w3.org/2000/svg">
<path fill-rule="evenodd" clip-rule="evenodd" d="M7.4845 1.49731C8.15808 0.330646 9.84201 0.33065 10.5156 1.49731L16.7943 12.3723C17.4678 13.539 16.6259 14.9973 15.2787 14.9973H2.72136C1.37421 14.9973 0.532242 13.539 1.20582 12.3723L7.4845 1.49731ZM9 4.00232C9.41421 4.00232 9.75 4.33811 9.75 4.75232V8.25232C9.75 8.66653 9.41421 9.00232 9 9.00232C8.58579 9.00232 8.25 8.66653 8.25 8.25232L8.25 4.75232C8.25 4.33811 8.58579 4.00232 9 4.00232ZM9 13.0023C9.55228 13.0023 10 12.5546 10 12.0023C10 11.45 9.55228 11.0023 9 11.0023C8.44772 11.0023 8 11.45 8 12.0023C8 12.5546 8.44772 13.0023 9 13.0023Z" fill="#FACC15"/>
</svg>
